<mxfile host="app.diagrams.net" modified="2024-01-20T08:58:23.726Z" agent="Mozilla/5.0 (Macintosh; Intel Mac OS X 10_15_7) AppleWebKit/537.36 (KHTML, like Gecko) Chrome/120.0.0.0 Safari/537.36" etag="gKK4hdc_SAo-QFVos6G2" version="22.1.21" type="device">
  <diagram id="C5RBs43oDa-KdzZeNtuy" name="Page-1">
    <mxGraphModel dx="2320" dy="890" grid="1" gridSize="10" guides="1" tooltips="1" connect="1" arrows="1" fold="1" page="1" pageScale="1" pageWidth="827" pageHeight="1169" math="0" shadow="0">
      <root>
        <mxCell id="WIyWlLk6GJQsqaUBKTNV-0" />
        <mxCell id="WIyWlLk6GJQsqaUBKTNV-1" parent="WIyWlLk6GJQsqaUBKTNV-0" />
        <mxCell id="xxs0IswClJvpFGNvmsQc-1" value="HTTPS Request" style="edgeStyle=orthogonalEdgeStyle;rounded=0;orthogonalLoop=1;jettySize=auto;html=1;entryX=0.5;entryY=0;entryDx=0;entryDy=0;" edge="1" parent="WIyWlLk6GJQsqaUBKTNV-1" source="WIyWlLk6GJQsqaUBKTNV-3" target="xxs0IswClJvpFGNvmsQc-0">
          <mxGeometry relative="1" as="geometry" />
        </mxCell>
        <mxCell id="WIyWlLk6GJQsqaUBKTNV-3" value="User takes picture" style="rounded=1;whiteSpace=wrap;html=1;fontSize=12;glass=0;strokeWidth=1;shadow=0;" parent="WIyWlLk6GJQsqaUBKTNV-1" vertex="1">
          <mxGeometry x="160" y="80" width="120" height="40" as="geometry" />
        </mxCell>
        <mxCell id="xxs0IswClJvpFGNvmsQc-3" value="HTTP Request" style="edgeStyle=orthogonalEdgeStyle;rounded=0;orthogonalLoop=1;jettySize=auto;html=1;entryX=0.5;entryY=0;entryDx=0;entryDy=0;" edge="1" parent="WIyWlLk6GJQsqaUBKTNV-1" source="xxs0IswClJvpFGNvmsQc-0" target="xxs0IswClJvpFGNvmsQc-2">
          <mxGeometry relative="1" as="geometry" />
        </mxCell>
        <mxCell id="xxs0IswClJvpFGNvmsQc-0" value="Picture uploaded to the Rust Service" style="rounded=1;whiteSpace=wrap;html=1;fontSize=12;glass=0;strokeWidth=1;shadow=0;" vertex="1" parent="WIyWlLk6GJQsqaUBKTNV-1">
          <mxGeometry x="160" y="180" width="120" height="40" as="geometry" />
        </mxCell>
        <mxCell id="xxs0IswClJvpFGNvmsQc-5" style="edgeStyle=orthogonalEdgeStyle;rounded=0;orthogonalLoop=1;jettySize=auto;html=1;entryX=0.5;entryY=0;entryDx=0;entryDy=0;" edge="1" parent="WIyWlLk6GJQsqaUBKTNV-1" source="xxs0IswClJvpFGNvmsQc-2" target="xxs0IswClJvpFGNvmsQc-4">
          <mxGeometry relative="1" as="geometry" />
        </mxCell>
        <mxCell id="xxs0IswClJvpFGNvmsQc-2" value="Rust Service sends picture to our FastAPI" style="rounded=1;whiteSpace=wrap;html=1;fontSize=12;glass=0;strokeWidth=1;shadow=0;" vertex="1" parent="WIyWlLk6GJQsqaUBKTNV-1">
          <mxGeometry x="160" y="280" width="120" height="40" as="geometry" />
        </mxCell>
        <mxCell id="xxs0IswClJvpFGNvmsQc-13" value="Yes" style="edgeStyle=orthogonalEdgeStyle;rounded=0;orthogonalLoop=1;jettySize=auto;html=1;entryX=0.5;entryY=0;entryDx=0;entryDy=0;" edge="1" parent="WIyWlLk6GJQsqaUBKTNV-1" source="xxs0IswClJvpFGNvmsQc-4" target="xxs0IswClJvpFGNvmsQc-12">
          <mxGeometry relative="1" as="geometry" />
        </mxCell>
        <mxCell id="xxs0IswClJvpFGNvmsQc-33" value="No" style="edgeStyle=orthogonalEdgeStyle;rounded=0;orthogonalLoop=1;jettySize=auto;html=1;" edge="1" parent="WIyWlLk6GJQsqaUBKTNV-1" source="xxs0IswClJvpFGNvmsQc-4">
          <mxGeometry relative="1" as="geometry">
            <mxPoint x="410" y="400" as="targetPoint" />
          </mxGeometry>
        </mxCell>
        <mxCell id="xxs0IswClJvpFGNvmsQc-4" value="Picture contains &lt;br&gt;exactly 1 face" style="rhombus;whiteSpace=wrap;html=1;" vertex="1" parent="WIyWlLk6GJQsqaUBKTNV-1">
          <mxGeometry x="155" y="350" width="130" height="100" as="geometry" />
        </mxCell>
        <mxCell id="xxs0IswClJvpFGNvmsQc-9" style="edgeStyle=orthogonalEdgeStyle;rounded=0;orthogonalLoop=1;jettySize=auto;html=1;entryX=0.5;entryY=1;entryDx=0;entryDy=0;" edge="1" parent="WIyWlLk6GJQsqaUBKTNV-1" source="xxs0IswClJvpFGNvmsQc-6" target="xxs0IswClJvpFGNvmsQc-8">
          <mxGeometry relative="1" as="geometry" />
        </mxCell>
        <mxCell id="xxs0IswClJvpFGNvmsQc-6" value="Error while processing picture" style="rounded=1;whiteSpace=wrap;html=1;fontSize=12;glass=0;strokeWidth=1;shadow=0;" vertex="1" parent="WIyWlLk6GJQsqaUBKTNV-1">
          <mxGeometry x="354" y="310" width="120" height="40" as="geometry" />
        </mxCell>
        <mxCell id="xxs0IswClJvpFGNvmsQc-10" style="edgeStyle=orthogonalEdgeStyle;rounded=0;orthogonalLoop=1;jettySize=auto;html=1;entryX=1;entryY=0.5;entryDx=0;entryDy=0;exitX=0.5;exitY=0;exitDx=0;exitDy=0;" edge="1" parent="WIyWlLk6GJQsqaUBKTNV-1" source="xxs0IswClJvpFGNvmsQc-8" target="WIyWlLk6GJQsqaUBKTNV-3">
          <mxGeometry relative="1" as="geometry">
            <Array as="points">
              <mxPoint x="414" y="100" />
            </Array>
          </mxGeometry>
        </mxCell>
        <mxCell id="xxs0IswClJvpFGNvmsQc-8" value="User is informed about error" style="rounded=1;whiteSpace=wrap;html=1;fontSize=12;glass=0;strokeWidth=1;shadow=0;" vertex="1" parent="WIyWlLk6GJQsqaUBKTNV-1">
          <mxGeometry x="354" y="200" width="120" height="40" as="geometry" />
        </mxCell>
        <mxCell id="xxs0IswClJvpFGNvmsQc-17" value="Yes" style="edgeStyle=orthogonalEdgeStyle;rounded=0;orthogonalLoop=1;jettySize=auto;html=1;" edge="1" parent="WIyWlLk6GJQsqaUBKTNV-1" source="xxs0IswClJvpFGNvmsQc-12" target="xxs0IswClJvpFGNvmsQc-16">
          <mxGeometry relative="1" as="geometry" />
        </mxCell>
        <mxCell id="xxs0IswClJvpFGNvmsQc-32" value="No" style="edgeStyle=orthogonalEdgeStyle;rounded=0;orthogonalLoop=1;jettySize=auto;html=1;" edge="1" parent="WIyWlLk6GJQsqaUBKTNV-1" source="xxs0IswClJvpFGNvmsQc-12">
          <mxGeometry relative="1" as="geometry">
            <mxPoint x="410" y="539.9999999999998" as="targetPoint" />
          </mxGeometry>
        </mxCell>
        <mxCell id="xxs0IswClJvpFGNvmsQc-12" value="&lt;br&gt;Face is oriented&lt;br&gt;towards the &lt;br&gt;camera" style="rhombus;whiteSpace=wrap;html=1;" vertex="1" parent="WIyWlLk6GJQsqaUBKTNV-1">
          <mxGeometry x="155" y="490" width="130" height="100" as="geometry" />
        </mxCell>
        <mxCell id="xxs0IswClJvpFGNvmsQc-30" style="edgeStyle=orthogonalEdgeStyle;rounded=0;orthogonalLoop=1;jettySize=auto;html=1;entryX=0.5;entryY=1;entryDx=0;entryDy=0;" edge="1" parent="WIyWlLk6GJQsqaUBKTNV-1" source="xxs0IswClJvpFGNvmsQc-16" target="xxs0IswClJvpFGNvmsQc-6">
          <mxGeometry relative="1" as="geometry" />
        </mxCell>
        <mxCell id="xxs0IswClJvpFGNvmsQc-31" value="No" style="edgeLabel;html=1;align=center;verticalAlign=middle;resizable=0;points=[];" vertex="1" connectable="0" parent="xxs0IswClJvpFGNvmsQc-30">
          <mxGeometry x="-0.8368" y="4" relative="1" as="geometry">
            <mxPoint x="20" as="offset" />
          </mxGeometry>
        </mxCell>
        <mxCell id="xxs0IswClJvpFGNvmsQc-34" value="Yes" style="edgeStyle=orthogonalEdgeStyle;rounded=0;orthogonalLoop=1;jettySize=auto;html=1;entryX=0.5;entryY=0;entryDx=0;entryDy=0;" edge="1" parent="WIyWlLk6GJQsqaUBKTNV-1" source="xxs0IswClJvpFGNvmsQc-16" target="xxs0IswClJvpFGNvmsQc-23">
          <mxGeometry relative="1" as="geometry" />
        </mxCell>
        <mxCell id="xxs0IswClJvpFGNvmsQc-16" value="Shoulder angle is between threshold" style="rhombus;whiteSpace=wrap;html=1;" vertex="1" parent="WIyWlLk6GJQsqaUBKTNV-1">
          <mxGeometry x="155" y="635" width="130" height="100" as="geometry" />
        </mxCell>
        <mxCell id="xxs0IswClJvpFGNvmsQc-22" style="edgeStyle=orthogonalEdgeStyle;rounded=0;orthogonalLoop=1;jettySize=auto;html=1;entryX=0.5;entryY=0;entryDx=0;entryDy=0;" edge="1" parent="WIyWlLk6GJQsqaUBKTNV-1" source="xxs0IswClJvpFGNvmsQc-19" target="xxs0IswClJvpFGNvmsQc-21">
          <mxGeometry relative="1" as="geometry" />
        </mxCell>
        <mxCell id="xxs0IswClJvpFGNvmsQc-19" value="Picture is cropped to match face angle" style="rounded=1;whiteSpace=wrap;html=1;fontSize=12;glass=0;strokeWidth=1;shadow=0;" vertex="1" parent="WIyWlLk6GJQsqaUBKTNV-1">
          <mxGeometry x="160" y="855" width="120" height="40" as="geometry" />
        </mxCell>
        <mxCell id="xxs0IswClJvpFGNvmsQc-35" style="edgeStyle=orthogonalEdgeStyle;rounded=0;orthogonalLoop=1;jettySize=auto;html=1;entryX=0.5;entryY=1;entryDx=0;entryDy=0;" edge="1" parent="WIyWlLk6GJQsqaUBKTNV-1" source="xxs0IswClJvpFGNvmsQc-21" target="xxs0IswClJvpFGNvmsQc-27">
          <mxGeometry relative="1" as="geometry" />
        </mxCell>
        <mxCell id="xxs0IswClJvpFGNvmsQc-21" value="Background of the face is replaced" style="rounded=1;whiteSpace=wrap;html=1;fontSize=12;glass=0;strokeWidth=1;shadow=0;" vertex="1" parent="WIyWlLk6GJQsqaUBKTNV-1">
          <mxGeometry x="160" y="930" width="120" height="40" as="geometry" />
        </mxCell>
        <mxCell id="xxs0IswClJvpFGNvmsQc-26" style="edgeStyle=orthogonalEdgeStyle;rounded=0;orthogonalLoop=1;jettySize=auto;html=1;entryX=0.5;entryY=0;entryDx=0;entryDy=0;" edge="1" parent="WIyWlLk6GJQsqaUBKTNV-1" source="xxs0IswClJvpFGNvmsQc-23" target="xxs0IswClJvpFGNvmsQc-19">
          <mxGeometry relative="1" as="geometry" />
        </mxCell>
        <mxCell id="xxs0IswClJvpFGNvmsQc-23" value="Picture is resized to uniform size" style="rounded=1;whiteSpace=wrap;html=1;fontSize=12;glass=0;strokeWidth=1;shadow=0;" vertex="1" parent="WIyWlLk6GJQsqaUBKTNV-1">
          <mxGeometry x="160" y="776" width="120" height="40" as="geometry" />
        </mxCell>
        <mxCell id="xxs0IswClJvpFGNvmsQc-37" value="HTTP Request" style="edgeStyle=orthogonalEdgeStyle;rounded=0;orthogonalLoop=1;jettySize=auto;html=1;" edge="1" parent="WIyWlLk6GJQsqaUBKTNV-1" source="xxs0IswClJvpFGNvmsQc-27" target="xxs0IswClJvpFGNvmsQc-36">
          <mxGeometry relative="1" as="geometry" />
        </mxCell>
        <mxCell id="xxs0IswClJvpFGNvmsQc-27" value="Final picture is returned to Rust service" style="rounded=1;whiteSpace=wrap;html=1;fontSize=12;glass=0;strokeWidth=1;shadow=0;" vertex="1" parent="WIyWlLk6GJQsqaUBKTNV-1">
          <mxGeometry x="-40" y="710" width="120" height="51" as="geometry" />
        </mxCell>
        <mxCell id="xxs0IswClJvpFGNvmsQc-40" value="HTTP Request" style="edgeStyle=orthogonalEdgeStyle;rounded=0;orthogonalLoop=1;jettySize=auto;html=1;entryX=0.5;entryY=1;entryDx=0;entryDy=0;" edge="1" parent="WIyWlLk6GJQsqaUBKTNV-1" source="xxs0IswClJvpFGNvmsQc-36" target="xxs0IswClJvpFGNvmsQc-39">
          <mxGeometry relative="1" as="geometry" />
        </mxCell>
        <mxCell id="xxs0IswClJvpFGNvmsQc-36" value="Rust service uploads final picture to storage" style="rounded=1;whiteSpace=wrap;html=1;fontSize=12;glass=0;strokeWidth=1;shadow=0;" vertex="1" parent="WIyWlLk6GJQsqaUBKTNV-1">
          <mxGeometry x="-40" y="559" width="120" height="51" as="geometry" />
        </mxCell>
        <mxCell id="xxs0IswClJvpFGNvmsQc-39" value="Final image has to be accepted manually" style="rounded=1;whiteSpace=wrap;html=1;fontSize=12;glass=0;strokeWidth=1;shadow=0;" vertex="1" parent="WIyWlLk6GJQsqaUBKTNV-1">
          <mxGeometry x="-40" y="440" width="120" height="40" as="geometry" />
        </mxCell>
      </root>
    </mxGraphModel>
  </diagram>
</mxfile>
